<svg fill="#000000" xmlns="http://www.w3.org/2000/svg"  viewBox="0 0 24 24" width="24px" height="24px"><path d="M9.461 12.311c.048.152.104.263.168.311.064.056.16.08.303.08h.686c.144 0 .255-.024.319-.08.064-.056.112-.16.152-.319l1.229-5.14 1.237 5.148c.032.16.088.263.152.319.064.056.168.08.319.08h.686c.136 0 .239-.032.303-.08.064-.048.12-.152.168-.311l1.924-6.17c.032-.088.048-.152.056-.2.008-.048.016-.088.016-.128 0-.136-.072-.2-.2-.2h-.742c-.144 0-.247.032-.311.08-.056.048-.112.152-.16.311l-1.381 5.348-1.261-5.348c-.032-.152-.088-.263-.152-.311-.064-.056-.168-.08-.319-.08h-.639c-.144 0-.255.032-.319.08-.064.048-.112.152-.152.311L10.3 11.297 8.959 6.013c-.048-.152-.096-.263-.16-.311-.056-.056-.16-.08-.311-.08H7.705c-.128 0-.192.072-.192.2 0 .056.024.16.072.319L9.461 12.311zM18.042 12.454c.208.12.519.223.918.319.399.096.814.144 1.229.144.407 0 .782-.056 1.141-.168.343-.104.639-.247.886-.447.247-.192.439-.431.583-.702.136-.271.208-.583.208-.926 0-.415-.12-.79-.367-1.117-.247-.327-.662-.583-1.237-.766l-1.133-.359c-.423-.136-.718-.287-.878-.439-.16-.152-.239-.343-.239-.567 0-.327.128-.559.375-.71.247-.152.607-.223 1.062-.223.567 0 1.078.104 1.533.311.136.064.239.096.303.096.12 0 .184-.088.184-.255V6.268c0-.112-.024-.2-.072-.263-.048-.072-.128-.136-.239-.2-.08-.048-.192-.096-.335-.144-.144-.048-.295-.088-.455-.128-.168-.032-.335-.064-.519-.088-.176-.024-.359-.032-.535-.032-.351 0-.686.04-1.006.136-.319.096-.591.231-.83.415-.239.176-.431.399-.575.655-.144.255-.216.551-.216.886 0 .415.136.806.399 1.157.263.359.694.631 1.277.814l1.157.359c.391.128.662.263.806.415.144.152.215.335.215.559 0 .327-.144.583-.415.758-.271.176-.663.263-1.165.263-.319 0-.631-.032-.95-.096-.311-.064-.607-.16-.878-.279-.08-.032-.152-.064-.2-.08s-.096-.024-.144-.024c-.12 0-.184.08-.184.247v.407c0 .072.016.152.048.223C17.827 12.303 17.915 12.382 18.042 12.454zM4.52 8.575c-.295-.04-.575-.064-.846-.064-.822 0-1.469.208-1.956.623C1.232 9.549.992 10.1.992 10.778c0 .639.2 1.149.591 1.533.391.383.926.575 1.596.575.942 0 1.724-.367 2.347-1.102.088.184.168.335.247.471.08.128.176.255.287.375.08.072.16.112.239.112.064 0 .136-.024.208-.072l.503-.335c.104-.08.152-.16.152-.239 0-.056-.016-.12-.056-.184-.112-.208-.192-.399-.255-.575-.056-.176-.088-.415-.088-.71H6.747V8.04c0-.878-.223-1.533-.663-1.964C5.638 5.646 4.944 5.43 3.994 5.43c-.439 0-.854.048-1.245.152C2.357 5.677 2.022 5.797 1.743 5.941 1.631 5.997 1.559 6.053 1.519 6.108 1.479 6.164 1.463 6.26 1.463 6.388v.391c0 .168.056.247.168.247.032 0 .072-.008.128-.024C1.814 6.986 1.91 6.955 2.038 6.899c.279-.112.567-.2.862-.271.295-.072.583-.104.862-.104.615 0 1.046.12 1.301.367.247.247.375.67.375 1.277v.583C5.119 8.679 4.816 8.615 4.52 8.575zM5.454 9.645V9.98c0 .271-.032.503-.08.694-.048.192-.144.359-.271.511-.216.239-.471.415-.758.511-.287.096-.559.144-.822.144-.367 0-.647-.096-.838-.295-.2-.192-.295-.471-.295-.846 0-.399.128-.702.391-.918C3.044 9.565 3.435 9.461 3.97 9.461c.247 0 .495.016.75.048C4.975 9.541 5.223 9.589 5.454 9.645zM23.909 14.689c-.287-.351-2.754-.655-4.254.399-.231.168-.192.391.064.359.854-.104 2.738-.327 3.073.104.335.423-.375 2.203-.694 2.993-.096.239.112.335.327.152C23.829 17.515 24.196 15.048 23.909 14.689z"/><path d="M21.315,16.19c-2.945,1.245-6.146,1.852-9.06,1.852c-4.318,0-8.493-1.189-11.877-3.153c-0.295-0.176-0.519,0.128-0.271,0.351c3.129,2.826,7.272,4.526,11.869,4.526c3.281,0,7.096-1.03,9.722-2.969C22.129,16.477,21.754,15.99,21.315,16.19z"/></svg>