<svg fill="#000000" xmlns="http://www.w3.org/2000/svg"  viewBox="0 0 64 64" width="64px" height="64px"><path d="M43.893,41.801c-0.229,0-0.458-0.078-0.646-0.237l-1.525-1.294c-0.421-0.357-0.473-0.988-0.116-1.41 c0.357-0.42,0.988-0.474,1.41-0.116l1.525,1.294c0.421,0.357,0.473,0.988,0.116,1.41C44.458,41.681,44.177,41.801,43.893,41.801z"/><path d="M40.166,45.457c-0.291,0-0.58-0.126-0.777-0.371l-1.259-1.554c-0.348-0.429-0.282-1.059,0.147-1.406 c0.428-0.348,1.058-0.282,1.406,0.147l1.259,1.554c0.348,0.429,0.282,1.059-0.147,1.406 C40.609,45.384,40.387,45.457,40.166,45.457z"/><path d="M35.774,48.321c-0.364,0-0.716-0.2-0.892-0.546l-0.907-1.783c-0.25-0.492-0.055-1.094,0.438-1.345 c0.492-0.252,1.094-0.054,1.345,0.438l0.907,1.783c0.25,0.492,0.055,1.094-0.438,1.345 C36.082,48.286,35.927,48.321,35.774,48.321z"/><path d="M30.86,50.172c-0.445,0-0.851-0.299-0.968-0.75l-0.5-1.937c-0.138-0.535,0.183-1.08,0.718-1.218 c0.534-0.137,1.08,0.184,1.218,0.718l0.5,1.937c0.138,0.535-0.183,1.08-0.718,1.218C31.027,50.162,30.943,50.172,30.86,50.172z"/><path d="M25.683,50.947c-0.529,0-0.971-0.415-0.998-0.949L24.584,48c-0.028-0.552,0.396-1.021,0.948-1.049 c0.542-0.025,1.021,0.396,1.049,0.948l0.102,1.998c0.028,0.552-0.396,1.021-0.948,1.049C25.718,50.946,25.7,50.947,25.683,50.947 z"/><path d="M24.235,55c-1.019,0-2.066-0.044-3.148-0.138c-8.257-0.71-14.214-3.493-17.706-8.268c-4.819-6.591-3.11-14.481-3.035-14.814	C0.45,31.324,0.855,31,1.322,31h42.776c0.051,0.003,2.092,0.034,3.672-1.167c-0.984-1.751-2.624-6.23,1.463-12.387	c0.147-0.222,0.376-0.375,0.637-0.427c0.259-0.053,0.531,0.001,0.752,0.15c0.235,0.158,5.043,3.441,4.832,8.022	c2.086-0.649,5.117-0.6,8.196,2.05c0.314,0.27,0.429,0.706,0.289,1.095c-0.024,0.065-2.389,6.366-10.229,5.739	C52.165,37.928,44.172,55,24.235,55z M2.17,33c-0.272,2.043-0.624,7.71,2.838,12.43c3.138,4.278,8.605,6.781,16.251,7.439	c1.012,0.087,1.999,0.128,2.952,0.129c20.952,0.002,27.821-20.099,27.891-20.312c0.15-0.457,0.6-0.743,1.083-0.678	c5.463,0.732,7.812-2.342,8.575-3.721c-3.882-2.871-6.968-0.599-7.104-0.496c-0.357,0.271-0.855,0.273-1.212,0.001	c-0.357-0.272-0.492-0.747-0.326-1.164c1.254-3.152-1.375-5.945-2.788-7.159c-3.527,6.092-0.519,9.852-0.486,9.891	c0.32,0.387,0.304,0.951-0.038,1.318c-2.229,2.398-5.59,2.325-5.737,2.319L2.17,33z"/><circle cx="12.5" cy="40.5" r="2.5"/><path d="M43,23h-7V8c0-0.55-0.45-1-1-1h-8c-0.55,0-1,0.45-1,1v7H11c-0.55,0-1,0.45-1,1v7H3c-0.55,0-1,0.45-1,1v8c0,0.55,0.45,1,1,1	h40c0.55,0,1-0.45,1-1v-8C44,23.45,43.55,23,43,23z M10,31H4v-6h6V31z M18,31h-6v-6h6V31z M26,31h-6v-6h6V31z M26,23h-6v-3	c0-0.552-0.448-1-1-1h0c-0.552,0-1,0.448-1,1v3h-6v-6h14V23z M34,31h-6v-6h3c0.55,0,1-0.45,1-1s-0.45-1-1-1h-3v-6h6V31z M34,15h-6V9	h6V15z M42,31h-6v-6h6V31z"/></svg>