<svg fill="#000000" xmlns="http://www.w3.org/2000/svg"  viewBox="0 0 26 26" width="26px" height="26px"><path d="M12.878,1.035c-1.019,0.005-2.015,0.091-2.87,0.24C7.488,1.715,7.03,2.637,7.03,4.336v2.625 h5.995v1.074H7.03H4.173c-1.73,0-3.246,1.029-3.721,2.986c-0.546,2.243-0.57,3.642,0,5.984c0.424,1.743,1.435,2.986,3.165,2.986 h2.382V16.71c0-1.944,1.7-3.742,3.72-3.742h5.262c1.655,0,2.977-1.348,2.977-2.993V4.336c0-1.596-1.361-2.794-2.977-3.062 C13.957,1.106,13.896,1.03,12.878,1.035z M9.5,3.377c0.615,0,1.117,0.505,1.117,1.126c0,0.618-0.502,1.119-1.117,1.119 c-0.617,0-1.117-0.5-1.117-1.119C8.383,3.883,8.883,3.377,9.5,3.377z"/><path d="M12.122,25.965c1.019-0.004,2.015-0.09,2.87-0.24c2.52-0.439,2.978-1.361,2.978-3.061 v-2.626h-5.995v-1.073h5.995h2.857c1.73,0,3.246-1.029,3.721-2.986c0.546-2.243,0.57-3.642,0-5.984 c-0.424-1.744-1.435-2.986-3.165-2.986h-2.382v3.282c0,1.944-1.7,3.741-3.72,3.741H10.02c-1.655,0-2.977,1.348-2.977,2.993v5.64 c0,1.596,1.361,2.794,2.977,3.061C11.043,25.894,11.104,25.971,12.122,25.965z M15.5,23.623c-0.615,0-1.117-0.506-1.117-1.127 c0-0.618,0.502-1.119,1.117-1.119c0.617,0,1.117,0.501,1.117,1.119C16.617,23.117,16.117,23.623,15.5,23.623z"/></svg>