<svg fill="#000000" xmlns="http://www.w3.org/2000/svg"  viewBox="0 0 32 32" width="32px" height="32px"><path d="M23,20.767C23,22.211,21.86,23,20.34,23c-1.492,0-2.461-0.713-2.926-1.644l1.311-0.751 c0.342,0.561,0.789,0.979,1.577,0.979c0.665,0,1.093-0.333,1.093-0.798c0-0.551-0.437-0.741-1.169-1.064l-0.399-0.171 c-1.159-0.494-1.929-1.121-1.929-2.432c0-1.207,0.922-2.119,2.347-2.119c1.026,0,1.758,0.352,2.29,1.283L21.28,17.09 c-0.276-0.494-0.57-0.694-1.036-0.694c-0.475,0-0.77,0.304-0.77,0.694c0,0.475,0.295,0.675,0.988,0.979l0.399,0.171 C22.23,18.819,23,19.418,23,20.767z"/><path d="M16,15.095v5.482C16,22.24,15.021,23,13.596,23c-1.283,0-2.033-0.665-2.413-1.473l1.311-0.789 c0.247,0.447,0.485,0.827,1.036,0.827c0.523,0,0.865-0.209,0.865-1.007v-5.463H16z"/><path d="M5,5v22h22V5H5z M7,7h18v18H7V7z"/></svg>