<svg fill="#000000" xmlns="http://www.w3.org/2000/svg"  viewBox="0 0 64 64" width="64px" height="64px"><path fill="none" stroke="#000000" stroke-miterlimit="10" stroke-width="2" d="M30.499,4.454c0.929-0.507,2.073-0.507,3.001,0C38.091,6.958,51.906,14.495,56.499,17C57.428,17.505,58,18.441,58,19.454c0,5.008,0,20.082,0,25.09c0,1.013-0.572,1.95-1.501,2.456C51.908,49.505,38.092,57.042,33.5,59.546c-0.929,0.507-2.073,0.507-3.001,0C25.908,57.042,12.092,49.505,7.5,47C6.572,46.494,6,45.559,6,44.546c0-5.008,0-20.082,0-25.09c0-1.013,0.572-1.95,1.501-2.456C12.091,14.495,25.909,6.958,30.499,4.454z"/><path fill="none" stroke="#000000" stroke-linecap="round" stroke-linejoin="round" stroke-miterlimit="10" stroke-width="2" d="M42.171 15.93c-1.077-.679-2.225-1.254-3.432-1.711M35.008 13.23c-.98-.155-1.984-.236-3.008-.236-10.574 0-19.158 8.584-19.158 19.158 0 10.574 8.584 19.158 19.158 19.158 7.13 0 13.343-3.911 16.641-9.695l-17.198-9.463 17.034-9.733c-.921-1.554-2.054-2.969-3.359-4.202"/><path fill="none" stroke="#000000" stroke-linecap="round" stroke-miterlimit="10" stroke-width="2" d="M18.919 34.793L16.978 35.276M20.841 39.191L19.155 40.267M24.034 42.764L22.79 44.329M28.223 44.962L27.654 46.879"/></svg>