<svg fill="#000000" xmlns="http://www.w3.org/2000/svg"  viewBox="0 0 24 24" width="24px" height="24px"><rect width="16" height="16" x="4" y="4" fill="none" stroke="#000000" stroke-miterlimit="10" stroke-width="2"/><polygon points="7,11.451 9.074,11.451 9.074,18 10.781,18 10.781,11.451 12.899,11.451 12.899,10 7,10"/><path d="M14.952,12.168c0-0.456,0.324-0.883,1.221-0.883c0.897,0,1.692,0.53,1.692,0.53l0.059-1.559c0,0-4.737-1.295-4.737,1.986 c0,2.413,3.251,2.413,3.251,3.501c0,0.103,0.044,0.853-1.103,0.853c-1.147,0-2.104-0.721-2.104-0.721v1.751 c0,0,5.002,1.618,5.002-2.03C18.233,13.227,14.952,13.345,14.952,12.168z"/></svg>