<svg fill="#000000" xmlns="http://www.w3.org/2000/svg"  viewBox="0 0 26 26" width="26px" height="26px"><path d="M12.626,13.584c-0.65-1.047-1.119-1.914-1.771-3.545C9.752,7.28,17.56,4.787,14.392,0 c1.373,3.309-4.924,5.351-5.509,8.108C8.347,10.641,12.622,13.584,12.626,13.584z"/><path d="M12.773 8.624c-.125 1.637 1.449 2.51 1.494 3.702.037.973-.941 1.783-.941 1.783s1.773-.347 2.328-1.832c.614-1.647-1.191-2.772-1.008-4.091.175-1.261 3.923-3.603 3.923-3.603S13.054 4.947 12.773 8.624zM18.107 13.685c1.14-.256 2.102.47 2.102 1.308 0 1.884-2.614 3.666-2.614 3.666s4.048-.482 4.048-3.578C21.643 13.035 19.654 12.524 18.107 13.685z"/><path d="M16.187,15.206c0,0,1.262-0.9,1.598-1.235C14.689,14.627,7.62,14.715,7.62,14.145 c0-0.525,2.278-1.065,2.278-1.065s-5.052-0.072-5.052,1.417C4.846,16.053,11.462,16.162,16.187,15.206z"/><path d="M15.41,16.62c-2.929,0.976-8.33,0.663-6.731-0.644c-0.776,0-1.932,0.625-1.932,1.226 c0,1.209,5.838,2.14,10.159,0.374L15.41,16.62z"/><path d="M9.398,18.68c-1.062,0-1.752,0.684-1.752,1.186c0,1.552,6.344,1.709,8.858,0.131l-1.598-1.059 C13.029,19.764,8.313,19.876,9.398,18.68z"/><path d="M20.735,21.281c0-0.607-0.686-0.895-0.934-1.033c1.448,3.493-14.504,3.222-14.504,1.161 c0-0.47,1.172-0.929,2.259-0.71l-0.923-0.546C4.469,19.814,3,20.763,3,21.531C3,25.107,20.735,24.935,20.735,21.281z"/><path d="M22.604,22.491c-2.696,2.662-9.53,3.632-16.401,1.988C13.074,27.407,22.571,25.759,22.604,22.491z"/></svg>