<svg width="18" height="18" viewBox="0 0 18 18" fill="none"
    xmlns="http://www.w3.org/2000/svg">
    <path d="M0.198074 18.171H3.93607C4.13407 18.171 4.30957 18.0586 4.41982 17.9019L14.7106 0.664893C14.8426 0.440878 14.6888 0.171753 14.4248 0.171753H10.8848C10.7086 0.171753 10.5548 0.261206 10.4671 0.418705L0.0225738 17.8575C-0.0434262 17.9921 0.0443238 18.171 0.198074 18.171ZM13.0838 17.9019L17.9431 9.94434C18.0968 9.69739 17.9213 9.38392 17.6356 9.38392H14.1173C13.9853 9.38392 13.8533 9.4512 13.7873 9.56359L8.79607 17.7008C8.66407 17.9026 8.81782 18.1718 9.06007 18.1718H12.6443C12.8198 18.171 12.9953 18.0815 13.0838 17.9019Z" fill="rgba(0,0,0,0.54)" />
</svg>
